<svg width="1177" height="830" viewBox="0 0 1177 830" fill="none" xmlns="http://www.w3.org/2000/svg">
<path d="M543.902 160.146C725.444 55.6505 885.942 56.8216 1012.5 159.601C1095.36 226.283 1133.08 309.013 1101.98 413.698C1071.64 514.26 963.969 604.115 858.255 583.116C628.264 537.73 449.856 622.771 284.326 765.556C252.376 793.386 211.336 833.619 165.869 804.868C113.691 773.187 139.595 717.835 151.12 673.493C210.78 445.34 358.964 283.197 544.164 161.046L543.902 160.146Z" fill="#019DE7" fill-opacity="0.2"/>
<path d="M199.43 88.2279C252.952 31.6107 324.691 24.7451 362.409 64.0569C397.603 100.372 389.142 163.804 335.935 203.035C276.869 246.706 230.881 298.283 207.104 368.317C202.941 379.949 196.503 392.062 181.77 392.548C163.563 393.275 156.458 378.77 153.188 365.343C128.6 261.038 142.724 164.151 199.43 88.2279Z" fill="#01A3F0" fill-opacity="0.2"/>
</svg>
