<svg width="320" height="602" viewBox="0 0 320 602" fill="none" xmlns="http://www.w3.org/2000/svg">
<g clip-path="url(#clip0_68_132)">
<path d="M145.309 534.496C198.33 483.284 234.882 422.14 256.761 352.552C286.685 258.824 298.559 162.521 292.851 64.3143C292.148 51.563 291.822 33.298 274.762 31.7784C256.561 30.0592 255.697 48.4096 252.311 61.0321C243.274 95.8654 235.946 130.998 227.244 165.596C201.671 268.016 156.609 357.625 65.7465 418.655C49.1043 429.837 33.9929 445.692 23.9107 463.015C4.76531 495.197 6.28515 530.118 32.5462 557.917C59.2773 586.387 89.1701 571.652 116.413 555.278C126.593 549.132 135.884 541.361 145.309 534.496Z" fill="#019DE6" fill-opacity="0.2"/>
</g>
<defs>
<clipPath id="clip0_68_132">
<rect width="319.023" height="600.818" fill="white" transform="translate(0 0.817871)"/>
</clipPath>
</defs>
</svg>
