<svg viewBox="0 0 3679 1134" fill="none" xmlns="http://www.w3.org/2000/svg">
<path d="M0 1114.26L55.696 1122.47C111.392 1131.31 222.273 1146.81 334.687 1114.26C445.823 1081.72 556.96 998.03 669.374 998.495C780.51 998.03 891.647 1081.72 1004.06 1072.88C1114.94 1064.67 1226.33 965.486 1338.75 948.904C1449.37 932.941 1561.02 998.03 1673.43 998.495C1783.8 998.03 1895.71 932.941 2005.57 948.904C2118.24 965.486 2230.39 1064.67 2340.25 1081.25C2452.67 1097.21 2565.08 1032.12 2674.94 1039.87C2787.1 1047.62 2899.77 1131.31 3009.63 1130.84C3121.53 1131.31 3231.9 1047.62 3344.31 1006.86C3455.96 965.486 3566.59 965.486 3622.79 965.486H3679L3679 717.528H3623.3C3567.61 717.528 3456.73 717.528 3344.31 717.528C3233.18 717.528 3122.04 717.528 3009.63 717.528C2898.49 717.528 2787.35 717.528 2674.94 717.528C2564.06 717.528 2452.67 717.528 2340.25 717.528C2229.63 717.528 2117.98 717.528 2005.57 717.528C1895.2 717.528 1783.29 717.528 1673.43 717.528C1560.76 717.528 1448.61 717.528 1338.75 717.528C1226.33 717.528 1113.92 717.528 1004.06 717.528C891.902 717.528 779.233 717.528 669.374 717.528C557.471 717.528 447.101 717.528 334.687 717.528C223.039 717.528 112.414 717.528 56.207 717.528H0V1114.26Z" fill="url(#paint0_linear_239_324)"/>
<path d="M3679 0V781.067L0 946.889V0H3679Z" fill="url(#paint1_linear_239_324)"/>
<defs>
<linearGradient id="paint0_linear_239_324" x1="1839.5" y1="-6.75917e-05" x2="1839.5" y2="1134" gradientUnits="userSpaceOnUse">
<stop stop-color="#8BDAFF"/>
<stop offset="0.46" stop-color="#018CC7"/>
<stop offset="1" stop-color="#0074A3"/>
</linearGradient>
<linearGradient id="paint1_linear_239_324" x1="1839.5" y1="-6.75917e-05" x2="1839.5" y2="1134" gradientUnits="userSpaceOnUse">
<stop stop-color="#8BDAFF"/>
<stop offset="0.46" stop-color="#018CC7"/>
<stop offset="1" stop-color="#0074A3"/>
</linearGradient>
</defs>
</svg>
