<svg width="3679" height="1134" viewBox="0 0 3679 1134" fill="none" xmlns="http://www.w3.org/2000/svg">
<path d="M3679 1114.26L3623.3 1122.47C3567.61 1131.31 3456.73 1146.81 3344.31 1114.26C3233.18 1081.72 3122.04 998.03 3009.63 998.495C2898.49 998.03 2787.35 1081.72 2674.94 1072.88C2564.06 1064.67 2452.67 965.486 2340.25 948.904C2229.63 932.941 2117.98 998.03 2005.57 998.495C1895.2 998.03 1783.29 932.941 1673.43 948.904C1560.76 965.486 1448.61 1064.67 1338.75 1081.25C1226.33 1097.21 1113.92 1032.12 1004.06 1039.87C891.902 1047.62 779.233 1131.31 669.374 1130.84C557.471 1131.31 447.101 1047.62 334.687 1006.86C223.039 965.486 112.414 965.486 56.207 965.486H2.42868e-05L6.00233e-05 717.528H55.6962C111.392 717.528 222.273 717.528 334.687 717.528C445.823 717.528 556.96 717.528 669.374 717.528C780.51 717.528 891.647 717.528 1004.06 717.528C1114.94 717.528 1226.33 717.528 1338.75 717.528C1449.37 717.528 1561.02 717.528 1673.43 717.528C1783.8 717.528 1895.71 717.528 2005.57 717.528C2118.24 717.528 2230.39 717.528 2340.25 717.528C2452.67 717.528 2565.08 717.528 2674.94 717.528C2787.1 717.528 2899.77 717.528 3009.63 717.528C3121.53 717.528 3231.9 717.528 3344.31 717.528C3455.96 717.528 3566.59 717.528 3622.79 717.528H3679V1114.26Z" fill="#004E6D"/>
<path d="M0 0V781.067L3679 946.889V0H0Z" fill="#004E6D"/>
</svg>
